<svg xmlns="http://www.w3.org/2000/svg" xmlns:xlink="http://www.w3.org/1999/xlink" width="200" zoomAndPan="magnify" viewBox="0 0 150 33.749998" height="45" preserveAspectRatio="xMidYMid meet" version="1.2"><defs/><g id="adef11bb3a"><g style="fill:#000000;fill-opacity:1;"><g transform="translate(3.037327, 26.050088)"><path style="stroke:none" d="M 14.421875 -5.117188 C 13.890625 -3.910156 13.296875 -2.847656 12.628906 -1.933594 C 11.953125 -1.003906 11.230469 -0.214844 10.464844 0.433594 C 9.636719 1.132812 8.785156 1.65625 7.90625 2.003906 C 6.988281 2.363281 6.078125 2.542969 5.175781 2.542969 C 4.160156 2.542969 3.226562 2.308594 2.371094 1.839844 C 1.539062 1.382812 0.828125 0.722656 0.246094 -0.136719 C -0.265625 -0.890625 -0.667969 -1.789062 -0.960938 -2.824219 C -1.238281 -3.820312 -1.378906 -4.957031 -1.378906 -6.226562 C -1.378906 -8.238281 -1.101562 -10.222656 -0.546875 -12.179688 C 0.015625 -14.152344 0.808594 -15.933594 1.832031 -17.523438 C 2.902344 -19.1875 4.183594 -20.535156 5.679688 -21.566406 C 7.328125 -22.703125 9.148438 -23.269531 11.144531 -23.269531 C 11.957031 -23.269531 12.738281 -23.101562 13.480469 -22.761719 C 14.21875 -22.429688 14.855469 -21.957031 15.390625 -21.355469 C 15.90625 -20.777344 16.304688 -20.09375 16.59375 -19.304688 C 16.875 -18.535156 17.015625 -17.703125 17.015625 -16.800781 L 17.015625 -16.445312 C 17.015625 -16.207031 16.996094 -15.960938 16.960938 -15.710938 L 16.730469 -14.082031 L 9.425781 -12.132812 L 8.53125 -13.992188 C 8.53125 -13.996094 8.527344 -14 8.527344 -14 C 8.535156 -13.988281 8.542969 -13.976562 8.554688 -13.960938 C 8.601562 -13.890625 8.667969 -13.816406 8.75 -13.746094 C 9.085938 -13.441406 9.496094 -13.289062 9.980469 -13.289062 C 10.253906 -13.289062 10.5 -13.351562 10.714844 -13.46875 C 10.765625 -13.496094 10.804688 -13.523438 10.839844 -13.550781 C 10.84375 -13.554688 10.847656 -13.558594 10.847656 -13.558594 C 10.847656 -13.554688 10.839844 -13.550781 10.835938 -13.542969 C 10.636719 -13.335938 10.425781 -13.035156 10.203125 -12.644531 C 9.925781 -12.164062 9.652344 -11.621094 9.386719 -11.011719 C 9.117188 -10.398438 8.878906 -9.777344 8.679688 -9.15625 C 8.472656 -8.527344 8.308594 -7.933594 8.183594 -7.375 C 8.082031 -6.917969 8.03125 -6.582031 8.03125 -6.367188 C 8.03125 -6.21875 8.039062 -6.117188 8.050781 -6.054688 C 8.027344 -6.167969 7.96875 -6.296875 7.867188 -6.449219 C 7.730469 -6.65625 7.546875 -6.828125 7.3125 -6.964844 C 7.03125 -7.125 6.738281 -7.207031 6.425781 -7.207031 C 6.253906 -7.207031 6.101562 -7.183594 5.957031 -7.136719 C 5.90625 -7.117188 5.867188 -7.101562 5.84375 -7.085938 C 5.898438 -7.121094 5.953125 -7.171875 6.015625 -7.238281 C 6.136719 -7.375 6.25 -7.53125 6.355469 -7.714844 C 6.417969 -7.820312 6.457031 -7.914062 6.476562 -7.988281 L 7.140625 -10.8125 L 15.441406 -7.460938 Z M 9.859375 -7.109375 L 12.140625 -6.113281 L 11.207031 -3.804688 L 7.96875 -5.113281 L 8.898438 -7.421875 L 11.320312 -6.851562 C 11.1875 -6.285156 10.960938 -5.730469 10.644531 -5.191406 C 10.375 -4.730469 10.070312 -4.3125 9.734375 -3.933594 C 9.339844 -3.492188 8.90625 -3.125 8.425781 -2.835938 C 7.765625 -2.433594 7.097656 -2.230469 6.425781 -2.230469 C 5.847656 -2.230469 5.3125 -2.375 4.820312 -2.65625 C 4.371094 -2.917969 4 -3.273438 3.703125 -3.726562 C 3.273438 -4.386719 3.054688 -5.269531 3.054688 -6.367188 C 3.054688 -6.949219 3.148438 -7.648438 3.328125 -8.460938 C 3.488281 -9.171875 3.695312 -9.914062 3.945312 -10.691406 C 4.199219 -11.46875 4.492188 -12.242188 4.828125 -13.011719 C 5.167969 -13.785156 5.523438 -14.492188 5.890625 -15.128906 C 6.308594 -15.859375 6.753906 -16.46875 7.21875 -16.960938 C 8.042969 -17.832031 8.960938 -18.265625 9.980469 -18.265625 C 10.761719 -18.265625 11.457031 -17.996094 12.0625 -17.457031 C 12.441406 -17.117188 12.761719 -16.679688 13.019531 -16.144531 L 10.773438 -15.066406 L 10.132812 -17.472656 L 13.855469 -18.464844 L 14.5 -16.0625 L 12.035156 -16.414062 C 12.039062 -16.429688 12.039062 -16.441406 12.039062 -16.445312 L 12.039062 -16.800781 C 12.039062 -17.117188 12 -17.378906 11.921875 -17.597656 C 11.847656 -17.792969 11.765625 -17.945312 11.671875 -18.050781 C 11.605469 -18.128906 11.519531 -18.1875 11.421875 -18.234375 C 11.332031 -18.273438 11.242188 -18.292969 11.144531 -18.292969 C 10.183594 -18.292969 9.304688 -18.019531 8.507812 -17.46875 C 7.558594 -16.816406 6.726562 -15.933594 6.015625 -14.832031 C 5.257812 -13.652344 4.667969 -12.316406 4.242188 -10.820312 C 3.8125 -9.308594 3.597656 -7.777344 3.597656 -6.226562 C 3.597656 -5.410156 3.675781 -4.726562 3.832031 -4.167969 C 3.976562 -3.652344 4.152344 -3.238281 4.363281 -2.933594 C 4.496094 -2.730469 4.632812 -2.59375 4.765625 -2.523438 C 4.875 -2.460938 5.011719 -2.429688 5.175781 -2.429688 C 5.445312 -2.429688 5.75 -2.496094 6.082031 -2.628906 C 6.453125 -2.773438 6.84375 -3.019531 7.25 -3.363281 C 7.714844 -3.757812 8.164062 -4.253906 8.609375 -4.863281 C 9.058594 -5.484375 9.476562 -6.230469 9.859375 -7.109375 Z M 9.859375 -7.109375 "/></g></g><g style="fill:#000000;fill-opacity:1;"><g transform="translate(16.029456, 26.050088)"><path style="stroke:none" d="M 18.410156 -15.378906 C 18.410156 -13.628906 18.21875 -11.96875 17.84375 -10.40625 C 17.46875 -8.859375 16.96875 -7.4375 16.34375 -6.132812 C 15.710938 -4.808594 14.96875 -3.621094 14.113281 -2.570312 C 13.273438 -1.53125 12.382812 -0.636719 11.445312 0.109375 C 10.460938 0.894531 9.453125 1.5 8.414062 1.921875 C 7.300781 2.375 6.210938 2.601562 5.144531 2.601562 C 4.15625 2.601562 3.238281 2.40625 2.394531 2.015625 C 1.535156 1.617188 0.796875 1.039062 0.175781 0.28125 C -0.410156 -0.441406 -0.863281 -1.324219 -1.175781 -2.371094 C -1.460938 -3.335938 -1.605469 -4.449219 -1.605469 -5.714844 C -1.605469 -6.960938 -1.453125 -8.261719 -1.148438 -9.617188 C -0.855469 -10.917969 -0.457031 -12.203125 0.0429688 -13.476562 C 0.558594 -14.78125 1.1875 -16.023438 1.9375 -17.199219 C 2.695312 -18.390625 3.535156 -19.453125 4.457031 -20.386719 C 5.4375 -21.375 6.496094 -22.167969 7.636719 -22.761719 C 8.90625 -23.421875 10.238281 -23.753906 11.628906 -23.753906 C 12.957031 -23.753906 14.105469 -23.453125 15.066406 -22.847656 C 15.988281 -22.273438 16.707031 -21.519531 17.226562 -20.589844 C 17.667969 -19.792969 17.984375 -18.914062 18.167969 -17.945312 C 18.328125 -17.09375 18.410156 -16.238281 18.410156 -15.378906 Z M 13.433594 -15.378906 C 13.433594 -15.925781 13.382812 -16.472656 13.277344 -17.023438 C 13.195312 -17.457031 13.0625 -17.835938 12.882812 -18.160156 C 12.777344 -18.351562 12.625 -18.507812 12.425781 -18.632812 C 12.269531 -18.730469 12.003906 -18.777344 11.628906 -18.777344 C 11.046875 -18.777344 10.484375 -18.636719 9.933594 -18.347656 C 9.253906 -17.996094 8.609375 -17.507812 7.996094 -16.886719 C 7.324219 -16.207031 6.703125 -15.421875 6.136719 -14.527344 C 5.558594 -13.621094 5.070312 -12.664062 4.675781 -11.65625 C 4.265625 -10.617188 3.945312 -9.574219 3.707031 -8.519531 C 3.480469 -7.527344 3.371094 -6.589844 3.371094 -5.714844 C 3.371094 -4.933594 3.445312 -4.292969 3.59375 -3.796875 C 3.714844 -3.382812 3.863281 -3.074219 4.03125 -2.867188 C 4.167969 -2.699219 4.320312 -2.574219 4.484375 -2.5 C 4.664062 -2.414062 4.886719 -2.375 5.144531 -2.375 C 5.558594 -2.375 6.023438 -2.480469 6.539062 -2.6875 C 7.132812 -2.929688 7.734375 -3.292969 8.34375 -3.777344 C 8.996094 -4.300781 9.632812 -4.941406 10.25 -5.703125 C 10.855469 -6.453125 11.394531 -7.3125 11.859375 -8.28125 C 12.332031 -9.269531 12.714844 -10.367188 13.003906 -11.570312 C 13.289062 -12.753906 13.433594 -14.023438 13.433594 -15.378906 Z M 7.605469 -6.453125 C 7.605469 -6.515625 7.601562 -6.558594 7.589844 -6.585938 C 7.578125 -6.628906 7.550781 -6.675781 7.507812 -6.730469 C 7.457031 -6.792969 7.40625 -6.84375 7.351562 -6.878906 C 7.148438 -7.003906 6.925781 -7.066406 6.679688 -7.066406 C 6.90625 -7.066406 7.113281 -7.152344 7.304688 -7.320312 C 7.734375 -7.699219 8.097656 -8.175781 8.390625 -8.75 C 8.738281 -9.433594 9.007812 -10.164062 9.199219 -10.941406 C 9.386719 -11.714844 9.480469 -12.398438 9.480469 -12.992188 C 9.480469 -13.132812 9.472656 -13.289062 9.453125 -13.46875 C 9.445312 -13.523438 9.4375 -13.566406 9.425781 -13.597656 C 9.484375 -13.441406 9.574219 -13.3125 9.699219 -13.199219 C 9.863281 -13.050781 10.050781 -12.941406 10.253906 -12.875 C 10.390625 -12.828125 10.515625 -12.808594 10.632812 -12.808594 C 10.480469 -12.808594 10.34375 -12.773438 10.222656 -12.699219 C 9.96875 -12.546875 9.730469 -12.335938 9.507812 -12.066406 C 9.226562 -11.714844 8.972656 -11.3125 8.753906 -10.855469 C 8.496094 -10.3125 8.273438 -9.761719 8.089844 -9.207031 C 7.917969 -8.6875 7.792969 -8.1875 7.71875 -7.703125 C 7.644531 -7.199219 7.605469 -6.785156 7.605469 -6.453125 Z M 2.628906 -6.453125 C 2.628906 -7.035156 2.6875 -7.699219 2.800781 -8.445312 C 2.914062 -9.214844 3.105469 -9.992188 3.367188 -10.78125 C 3.617188 -11.53125 3.917969 -12.269531 4.265625 -13 C 4.652344 -13.8125 5.113281 -14.542969 5.644531 -15.199219 C 6.238281 -15.933594 6.921875 -16.527344 7.6875 -16.980469 C 8.589844 -17.515625 9.570312 -17.785156 10.632812 -17.785156 C 11.570312 -17.785156 12.363281 -17.492188 13.015625 -16.90625 C 13.5 -16.476562 13.855469 -15.953125 14.085938 -15.34375 C 14.246094 -14.921875 14.347656 -14.472656 14.398438 -13.996094 C 14.4375 -13.644531 14.457031 -13.308594 14.457031 -12.992188 C 14.457031 -11.996094 14.316406 -10.917969 14.03125 -9.757812 C 13.746094 -8.601562 13.34375 -7.511719 12.820312 -6.488281 C 12.242188 -5.355469 11.503906 -4.390625 10.605469 -3.597656 C 9.472656 -2.589844 8.164062 -2.089844 6.679688 -2.089844 C 5.980469 -2.089844 5.332031 -2.273438 4.730469 -2.648438 C 4.28125 -2.925781 3.894531 -3.269531 3.582031 -3.675781 C 3.273438 -4.070312 3.035156 -4.515625 2.871094 -5.011719 C 2.710938 -5.496094 2.628906 -5.976562 2.628906 -6.453125 Z M 2.628906 -6.453125 "/></g></g><g style="fill:#000000;fill-opacity:1;"><g transform="translate(31.267446, 26.050088)"><path style="stroke:none" d="M -3.214844 -0.953125 C -2.386719 -3.460938 -1.59375 -5.921875 -0.839844 -8.332031 C -0.519531 -9.351562 -0.1875 -10.417969 0.152344 -11.53125 L 1.175781 -14.863281 C 1.511719 -15.949219 1.824219 -16.992188 2.113281 -18 C 2.402344 -19.003906 2.660156 -19.933594 2.878906 -20.785156 L 3.367188 -22.644531 L 5.289062 -22.644531 C 6.230469 -22.644531 7.113281 -22.695312 7.941406 -22.796875 C 8.898438 -22.914062 9.933594 -23.023438 11.042969 -23.117188 L 14.128906 -23.390625 L 13.539062 -18.910156 C 13.472656 -18.375 13.394531 -17.816406 13.304688 -17.230469 L 13.035156 -15.457031 C 12.941406 -14.859375 12.828125 -14.09375 12.699219 -13.160156 C 12.5625 -12.195312 12.382812 -10.996094 12.152344 -9.558594 L 9.695312 -9.949219 L 9.695312 -12.4375 L 10.0625 -12.4375 L 10.0625 -9.949219 L 7.738281 -10.832031 L 9.101562 -14.429688 L 9.980469 -16.769531 C 10.21875 -17.398438 10.457031 -18.011719 10.703125 -18.613281 L 11.390625 -20.269531 C 11.625 -20.832031 11.847656 -21.332031 12.054688 -21.765625 L 12.671875 -23.0625 L 14.101562 -23.175781 C 14.53125 -23.210938 14.929688 -23.253906 15.300781 -23.304688 C 15.699219 -23.359375 16.097656 -23.417969 16.496094 -23.480469 L 17.765625 -23.679688 C 18.171875 -23.742188 18.617188 -23.820312 19.105469 -23.910156 L 22.617188 -24.5625 L 22.011719 -21.042969 C 21.824219 -19.960938 21.648438 -18.855469 21.480469 -17.71875 C 21.3125 -16.589844 21.167969 -15.460938 21.035156 -14.339844 L 20.652344 -10.949219 C 20.53125 -9.851562 20.425781 -8.804688 20.332031 -7.8125 C 20.105469 -5.476562 19.90625 -3.195312 19.738281 -0.976562 L 19.589844 0.945312 L 9.824219 2.6875 L 9.824219 -0.285156 C 9.824219 -0.4375 9.839844 -0.746094 9.871094 -1.222656 C 9.898438 -1.644531 9.9375 -2.167969 9.988281 -2.78125 C 10.035156 -3.417969 10.105469 -4.121094 10.195312 -4.890625 L 10.449219 -7.109375 C 10.539062 -7.863281 10.628906 -8.597656 10.726562 -9.308594 C 10.828125 -10.042969 10.929688 -10.679688 11.03125 -11.214844 L 13.476562 -10.746094 L 13.476562 -8.257812 L 13.21875 -8.257812 L 13.21875 -10.746094 L 15.582031 -9.960938 C 15.308594 -9.140625 15.003906 -8.28125 14.675781 -7.375 L 13.695312 -4.691406 L 12.710938 -2.015625 C 12.40625 -1.179688 12.132812 -0.386719 11.902344 0.367188 L 11.375 2.066406 L 9.59375 2.117188 C 8.957031 2.136719 8.414062 2.15625 7.96875 2.183594 L 3.441406 2.457031 L 4.601562 -10.960938 L 7.078125 -10.746094 L 7.078125 -8.257812 L 6.652344 -8.257812 L 6.652344 -10.746094 L 9.113281 -10.367188 C 9.0625 -10.035156 8.949219 -9.539062 8.773438 -8.878906 L 8.246094 -6.882812 C 8.042969 -6.121094 7.828125 -5.332031 7.597656 -4.511719 L 6.957031 -2.261719 C 6.753906 -1.558594 6.585938 -0.980469 6.449219 -0.527344 C 6.308594 -0.0546875 6.226562 0.222656 6.199219 0.304688 L 5.671875 1.886719 L -4.375 2.558594 Z M 1.507812 0.609375 L -0.851562 -0.171875 L -1.019531 -2.652344 L 3.671875 -2.964844 L 3.839844 -0.484375 L 1.476562 -1.269531 C 1.488281 -1.300781 1.554688 -1.527344 1.679688 -1.945312 C 1.8125 -2.386719 1.976562 -2.945312 2.171875 -3.625 L 2.808594 -5.863281 C 3.03125 -6.65625 3.242188 -7.421875 3.4375 -8.15625 L 3.960938 -10.140625 C 4.089844 -10.636719 4.167969 -10.964844 4.195312 -11.125 L 4.519531 -13.234375 L 9.789062 -13.234375 L 8.648438 0.015625 L 6.167969 -0.199219 L 6.019531 -2.683594 L 7.667969 -2.78125 C 8.167969 -2.8125 8.765625 -2.835938 9.453125 -2.855469 L 9.523438 -0.371094 L 7.148438 -1.105469 C 7.40625 -1.945312 7.707031 -2.820312 8.042969 -3.730469 L 9.019531 -6.398438 L 10.003906 -9.085938 C 10.316406 -9.945312 10.601562 -10.761719 10.859375 -11.535156 L 11.425781 -13.234375 L 16.488281 -13.234375 L 15.917969 -10.277344 C 15.832031 -9.828125 15.746094 -9.28125 15.65625 -8.632812 C 15.5625 -7.957031 15.476562 -7.261719 15.394531 -6.539062 L 15.136719 -4.320312 C 15.054688 -3.613281 14.992188 -2.96875 14.945312 -2.394531 C 14.898438 -1.796875 14.863281 -1.292969 14.835938 -0.882812 C 14.8125 -0.523438 14.796875 -0.324219 14.796875 -0.285156 L 12.308594 -0.285156 L 11.875 -2.734375 L 16.820312 -3.613281 L 17.257812 -1.164062 L 14.777344 -1.355469 C 14.949219 -3.609375 15.148438 -5.917969 15.378906 -8.28125 C 15.472656 -9.296875 15.582031 -10.375 15.710938 -11.507812 L 16.09375 -14.914062 C 16.230469 -16.085938 16.382812 -17.261719 16.558594 -18.445312 C 16.730469 -19.621094 16.914062 -20.769531 17.109375 -21.886719 L 19.558594 -21.464844 L 20.011719 -19.019531 C 19.476562 -18.917969 18.988281 -18.835938 18.539062 -18.765625 L 17.277344 -18.566406 C 16.84375 -18.496094 16.40625 -18.433594 15.972656 -18.375 C 15.511719 -18.3125 15.019531 -18.257812 14.5 -18.21875 L 14.300781 -20.699219 L 16.546875 -19.628906 C 16.375 -19.265625 16.1875 -18.84375 15.988281 -18.367188 L 15.308594 -16.726562 C 15.082031 -16.171875 14.859375 -15.601562 14.640625 -15.015625 L 13.753906 -12.664062 L 11.78125 -7.460938 L 6.777344 -7.460938 L 7.238281 -10.34375 C 7.464844 -11.75 7.640625 -12.917969 7.769531 -13.847656 C 7.90625 -14.808594 8.019531 -15.597656 8.117188 -16.210938 L 8.386719 -17.96875 C 8.46875 -18.519531 8.542969 -19.046875 8.605469 -19.558594 L 8.792969 -20.964844 L 11.257812 -20.640625 L 11.476562 -18.160156 C 10.425781 -18.070312 9.449219 -17.96875 8.546875 -17.859375 C 7.519531 -17.730469 6.433594 -17.667969 5.289062 -17.667969 L 5.289062 -20.15625 L 7.695312 -19.527344 C 7.460938 -18.636719 7.195312 -17.671875 6.898438 -16.628906 C 6.597656 -15.585938 6.277344 -14.511719 5.933594 -13.398438 L 4.910156 -10.078125 C 4.566406 -8.953125 4.234375 -7.875 3.910156 -6.847656 C 3.148438 -4.410156 2.347656 -1.921875 1.507812 0.609375 Z M 1.507812 0.609375 "/></g></g><g style="fill:#000000;fill-opacity:1;"><g transform="translate(50.087464, 26.050088)"><path style="stroke:none" d="M 4.832031 1.917969 C 4.742188 1.917969 4.480469 1.9375 4.058594 1.980469 C 3.582031 2.023438 3.089844 2.078125 2.582031 2.140625 L 1.15625 2.324219 C 0.976562 2.351562 0.835938 2.371094 0.746094 2.382812 C 0.730469 2.386719 0.71875 2.390625 0.710938 2.390625 C 0.710938 2.390625 0.714844 2.390625 0.71875 2.386719 C 0.894531 2.351562 1.074219 2.289062 1.253906 2.195312 L -3.480469 4.5625 L -2.28125 -0.59375 C -2.097656 -1.382812 -1.910156 -2.261719 -1.714844 -3.230469 L -1.105469 -6.347656 C -0.902344 -7.414062 -0.707031 -8.496094 -0.519531 -9.597656 L 0.0195312 -12.832031 L 1.496094 -22.074219 L 11.140625 -23.617188 L 9.277344 -12.714844 L 8.753906 -9.496094 L 8.214844 -6.167969 C 8.035156 -5.082031 7.871094 -4.027344 7.722656 -3.007812 C 7.566406 -1.964844 7.425781 -1.023438 7.289062 -0.175781 L 6.957031 1.917969 Z M 4.832031 -3.054688 L 4.832031 -0.570312 L 2.375 -0.960938 C 2.507812 -1.785156 2.648438 -2.707031 2.796875 -3.730469 C 2.953125 -4.777344 3.121094 -5.855469 3.300781 -6.964844 L 3.839844 -10.292969 L 4.371094 -13.554688 L 5.652344 -21.03125 L 8.101562 -20.613281 L 8.496094 -18.15625 L 4.0625 -17.445312 L 3.667969 -19.902344 L 6.125 -19.507812 L 4.925781 -12.015625 L 4.386719 -8.765625 C 4.195312 -7.632812 3.992188 -6.507812 3.777344 -5.394531 L 3.164062 -2.253906 C 2.960938 -1.234375 2.761719 -0.304688 2.566406 0.535156 L 0.140625 -0.0273438 L -0.96875 -2.253906 C -0.726562 -2.375 -0.421875 -2.46875 -0.0546875 -2.527344 C 0.0820312 -2.550781 0.277344 -2.578125 0.519531 -2.609375 L 1.964844 -2.796875 C 2.519531 -2.863281 3.0625 -2.925781 3.589844 -2.972656 C 4.171875 -3.027344 4.585938 -3.054688 4.832031 -3.054688 Z M 4.832031 -3.054688 "/></g></g><g style="fill:#000000;fill-opacity:1;"><g transform="translate(57.052693, 26.050088)"><path style="stroke:none" d="M 14.421875 -5.117188 C 13.890625 -3.910156 13.296875 -2.847656 12.628906 -1.933594 C 11.953125 -1.003906 11.230469 -0.214844 10.464844 0.433594 C 9.636719 1.132812 8.785156 1.65625 7.90625 2.003906 C 6.988281 2.363281 6.078125 2.542969 5.175781 2.542969 C 4.160156 2.542969 3.226562 2.308594 2.371094 1.839844 C 1.539062 1.382812 0.828125 0.722656 0.246094 -0.136719 C -0.265625 -0.890625 -0.667969 -1.789062 -0.960938 -2.824219 C -1.238281 -3.820312 -1.378906 -4.957031 -1.378906 -6.226562 C -1.378906 -8.238281 -1.101562 -10.222656 -0.546875 -12.179688 C 0.015625 -14.152344 0.808594 -15.933594 1.832031 -17.523438 C 2.902344 -19.1875 4.183594 -20.535156 5.679688 -21.566406 C 7.328125 -22.703125 9.148438 -23.269531 11.144531 -23.269531 C 11.957031 -23.269531 12.738281 -23.101562 13.480469 -22.761719 C 14.21875 -22.429688 14.855469 -21.957031 15.390625 -21.355469 C 15.90625 -20.777344 16.304688 -20.09375 16.59375 -19.304688 C 16.875 -18.535156 17.015625 -17.703125 17.015625 -16.800781 L 17.015625 -16.445312 C 17.015625 -16.207031 16.996094 -15.960938 16.960938 -15.710938 L 16.730469 -14.082031 L 9.425781 -12.132812 L 8.53125 -13.992188 C 8.53125 -13.996094 8.527344 -14 8.527344 -14 C 8.535156 -13.988281 8.542969 -13.976562 8.554688 -13.960938 C 8.601562 -13.890625 8.667969 -13.816406 8.75 -13.746094 C 9.085938 -13.441406 9.496094 -13.289062 9.980469 -13.289062 C 10.253906 -13.289062 10.5 -13.351562 10.714844 -13.46875 C 10.765625 -13.496094 10.804688 -13.523438 10.839844 -13.550781 C 10.84375 -13.554688 10.847656 -13.558594 10.847656 -13.558594 C 10.847656 -13.554688 10.839844 -13.550781 10.835938 -13.542969 C 10.636719 -13.335938 10.425781 -13.035156 10.203125 -12.644531 C 9.925781 -12.164062 9.652344 -11.621094 9.386719 -11.011719 C 9.117188 -10.398438 8.878906 -9.777344 8.679688 -9.15625 C 8.472656 -8.527344 8.308594 -7.933594 8.183594 -7.375 C 8.082031 -6.917969 8.03125 -6.582031 8.03125 -6.367188 C 8.03125 -6.21875 8.039062 -6.117188 8.050781 -6.054688 C 8.027344 -6.167969 7.96875 -6.296875 7.867188 -6.449219 C 7.730469 -6.65625 7.546875 -6.828125 7.3125 -6.964844 C 7.03125 -7.125 6.738281 -7.207031 6.425781 -7.207031 C 6.253906 -7.207031 6.101562 -7.183594 5.957031 -7.136719 C 5.90625 -7.117188 5.867188 -7.101562 5.84375 -7.085938 C 5.898438 -7.121094 5.953125 -7.171875 6.015625 -7.238281 C 6.136719 -7.375 6.25 -7.53125 6.355469 -7.714844 C 6.417969 -7.820312 6.457031 -7.914062 6.476562 -7.988281 L 7.140625 -10.8125 L 15.441406 -7.460938 Z M 9.859375 -7.109375 L 12.140625 -6.113281 L 11.207031 -3.804688 L 7.96875 -5.113281 L 8.898438 -7.421875 L 11.320312 -6.851562 C 11.1875 -6.285156 10.960938 -5.730469 10.644531 -5.191406 C 10.375 -4.730469 10.070312 -4.3125 9.734375 -3.933594 C 9.339844 -3.492188 8.90625 -3.125 8.425781 -2.835938 C 7.765625 -2.433594 7.097656 -2.230469 6.425781 -2.230469 C 5.847656 -2.230469 5.3125 -2.375 4.820312 -2.65625 C 4.371094 -2.917969 4 -3.273438 3.703125 -3.726562 C 3.273438 -4.386719 3.054688 -5.269531 3.054688 -6.367188 C 3.054688 -6.949219 3.148438 -7.648438 3.328125 -8.460938 C 3.488281 -9.171875 3.695312 -9.914062 3.945312 -10.691406 C 4.199219 -11.46875 4.492188 -12.242188 4.828125 -13.011719 C 5.167969 -13.785156 5.523438 -14.492188 5.890625 -15.128906 C 6.308594 -15.859375 6.753906 -16.46875 7.21875 -16.960938 C 8.042969 -17.832031 8.960938 -18.265625 9.980469 -18.265625 C 10.761719 -18.265625 11.457031 -17.996094 12.0625 -17.457031 C 12.441406 -17.117188 12.761719 -16.679688 13.019531 -16.144531 L 10.773438 -15.066406 L 10.132812 -17.472656 L 13.855469 -18.464844 L 14.5 -16.0625 L 12.035156 -16.414062 C 12.039062 -16.429688 12.039062 -16.441406 12.039062 -16.445312 L 12.039062 -16.800781 C 12.039062 -17.117188 12 -17.378906 11.921875 -17.597656 C 11.847656 -17.792969 11.765625 -17.945312 11.671875 -18.050781 C 11.605469 -18.128906 11.519531 -18.1875 11.421875 -18.234375 C 11.332031 -18.273438 11.242188 -18.292969 11.144531 -18.292969 C 10.183594 -18.292969 9.304688 -18.019531 8.507812 -17.46875 C 7.558594 -16.816406 6.726562 -15.933594 6.015625 -14.832031 C 5.257812 -13.652344 4.667969 -12.316406 4.242188 -10.820312 C 3.8125 -9.308594 3.597656 -7.777344 3.597656 -6.226562 C 3.597656 -5.410156 3.675781 -4.726562 3.832031 -4.167969 C 3.976562 -3.652344 4.152344 -3.238281 4.363281 -2.933594 C 4.496094 -2.730469 4.632812 -2.59375 4.765625 -2.523438 C 4.875 -2.460938 5.011719 -2.429688 5.175781 -2.429688 C 5.445312 -2.429688 5.75 -2.496094 6.082031 -2.628906 C 6.453125 -2.773438 6.84375 -3.019531 7.25 -3.363281 C 7.714844 -3.757812 8.164062 -4.253906 8.609375 -4.863281 C 9.058594 -5.484375 9.476562 -6.230469 9.859375 -7.109375 Z M 9.859375 -7.109375 "/></g></g><g style="fill:#000000;fill-opacity:1;"><g transform="translate(70.044822, 26.050088)"><path style="stroke:none" d="M 4.832031 1.917969 C 4.742188 1.917969 4.480469 1.9375 4.058594 1.980469 C 3.582031 2.023438 3.089844 2.078125 2.582031 2.140625 L 1.15625 2.324219 C 0.976562 2.351562 0.835938 2.371094 0.746094 2.382812 C 0.730469 2.386719 0.71875 2.390625 0.710938 2.390625 C 0.710938 2.390625 0.714844 2.390625 0.71875 2.386719 C 0.894531 2.351562 1.074219 2.289062 1.253906 2.195312 L -3.480469 4.5625 L -2.28125 -0.59375 C -2.097656 -1.382812 -1.910156 -2.261719 -1.714844 -3.230469 L -1.105469 -6.347656 C -0.902344 -7.414062 -0.707031 -8.496094 -0.519531 -9.597656 L 0.0195312 -12.832031 L 1.496094 -22.074219 L 11.140625 -23.617188 L 9.277344 -12.714844 L 8.753906 -9.496094 L 8.214844 -6.167969 C 8.035156 -5.082031 7.871094 -4.027344 7.722656 -3.007812 C 7.566406 -1.964844 7.425781 -1.023438 7.289062 -0.175781 L 6.957031 1.917969 Z M 4.832031 -3.054688 L 4.832031 -0.570312 L 2.375 -0.960938 C 2.507812 -1.785156 2.648438 -2.707031 2.796875 -3.730469 C 2.953125 -4.777344 3.121094 -5.855469 3.300781 -6.964844 L 3.839844 -10.292969 L 4.371094 -13.554688 L 5.652344 -21.03125 L 8.101562 -20.613281 L 8.496094 -18.15625 L 4.0625 -17.445312 L 3.667969 -19.902344 L 6.125 -19.507812 L 4.925781 -12.015625 L 4.386719 -8.765625 C 4.195312 -7.632812 3.992188 -6.507812 3.777344 -5.394531 L 3.164062 -2.253906 C 2.960938 -1.234375 2.761719 -0.304688 2.566406 0.535156 L 0.140625 -0.0273438 L -0.96875 -2.253906 C -0.726562 -2.375 -0.421875 -2.46875 -0.0546875 -2.527344 C 0.0820312 -2.550781 0.277344 -2.578125 0.519531 -2.609375 L 1.964844 -2.796875 C 2.519531 -2.863281 3.0625 -2.925781 3.589844 -2.972656 C 4.171875 -3.027344 4.585938 -3.054688 4.832031 -3.054688 Z M 4.832031 -3.054688 "/></g></g><g style="fill:#000000;fill-opacity:1;"><g transform="translate(77.010051, 26.050088)"><path style="stroke:none" d="M -2.296875 -0.355469 L -0.675781 -8.289062 L 1.761719 -7.789062 L -0.6875 -8.210938 C -0.496094 -9.324219 -0.292969 -10.46875 -0.0703125 -11.65625 C 0.144531 -12.816406 0.34375 -13.960938 0.53125 -15.089844 C 0.71875 -16.21875 0.886719 -17.300781 1.035156 -18.335938 C 1.179688 -19.34375 1.289062 -20.25 1.359375 -21.058594 L 1.578125 -23.507812 L 4.027344 -23.320312 C 4.210938 -23.304688 4.355469 -23.300781 4.464844 -23.300781 L 5.0625 -23.300781 C 5.304688 -23.300781 5.605469 -23.304688 5.964844 -23.3125 C 6.324219 -23.320312 6.683594 -23.335938 7.039062 -23.351562 L 10.40625 -23.507812 L 10.828125 -21.414062 C 11.097656 -20.0625 11.339844 -18.757812 11.550781 -17.5 L 9.097656 -17.085938 L 11.539062 -17.554688 L 12.179688 -14.230469 C 12.394531 -13.109375 12.585938 -12.160156 12.753906 -11.382812 L 10.320312 -10.859375 L 7.878906 -11.347656 C 7.953125 -11.71875 8.039062 -12.148438 8.132812 -12.644531 C 8.230469 -13.160156 8.335938 -13.699219 8.453125 -14.265625 C 8.5625 -14.796875 8.667969 -15.335938 8.769531 -15.878906 C 8.878906 -16.453125 8.988281 -17.023438 9.105469 -17.589844 L 10.308594 -23.148438 L 19.027344 -24.222656 L 18.265625 -20.78125 C 17.625 -17.910156 17.0625 -15.183594 16.574219 -12.613281 C 16.34375 -11.484375 16.121094 -10.351562 15.90625 -9.214844 C 15.6875 -8.078125 15.488281 -6.984375 15.300781 -5.941406 C 15.113281 -4.914062 14.957031 -3.964844 14.828125 -3.089844 C 14.699219 -2.210938 14.597656 -1.472656 14.523438 -0.886719 L 14.25 1.292969 L 12.054688 1.292969 C 12.167969 1.292969 12.265625 1.285156 12.355469 1.273438 C 12.351562 1.273438 12.335938 1.277344 12.3125 1.28125 C 12.222656 1.296875 12.09375 1.324219 11.917969 1.363281 L 10.59375 1.660156 L 9.09375 2 C 8.707031 2.085938 8.449219 2.15625 8.3125 2.207031 L 5.191406 3.410156 L 4.9375 0.0742188 C 4.828125 -1.425781 4.707031 -2.847656 4.574219 -4.195312 C 4.519531 -4.773438 4.457031 -5.367188 4.390625 -5.972656 C 4.328125 -6.570312 4.257812 -7.140625 4.1875 -7.6875 C 4.113281 -8.242188 4.039062 -8.753906 3.964844 -9.230469 C 3.898438 -9.679688 3.828125 -10.0625 3.761719 -10.375 L 6.199219 -10.890625 L 8.65625 -10.5 C 8.59375 -10.105469 8.511719 -9.65625 8.410156 -9.148438 C 8.320312 -8.691406 8.226562 -8.207031 8.136719 -7.695312 C 8.042969 -7.175781 7.949219 -6.632812 7.855469 -6.066406 C 7.753906 -5.449219 7.644531 -4.855469 7.523438 -4.285156 C 7.28125 -3.035156 7.015625 -1.714844 6.730469 -0.324219 L 6.410156 1.238281 L -3.070312 3.445312 Z M 2.578125 0.640625 L 0.140625 0.140625 L -0.421875 -2.28125 L 3.730469 -3.246094 L 4.292969 -0.824219 L 1.855469 -1.324219 C 2.136719 -2.699219 2.40625 -4.035156 2.65625 -5.324219 C 2.761719 -5.816406 2.859375 -6.332031 2.945312 -6.871094 C 3.042969 -7.460938 3.140625 -8.027344 3.238281 -8.570312 C 3.335938 -9.117188 3.433594 -9.636719 3.53125 -10.125 C 3.617188 -10.566406 3.6875 -10.949219 3.742188 -11.277344 L 8.632812 -11.402344 C 8.71875 -10.996094 8.800781 -10.527344 8.882812 -9.988281 C 8.960938 -9.480469 9.039062 -8.929688 9.117188 -8.347656 C 9.199219 -7.757812 9.269531 -7.144531 9.339844 -6.507812 C 9.40625 -5.882812 9.46875 -5.273438 9.527344 -4.675781 C 9.660156 -3.292969 9.785156 -1.835938 9.902344 -0.300781 L 7.421875 -0.113281 L 6.527344 -2.4375 C 6.886719 -2.574219 7.375 -2.710938 7.992188 -2.851562 L 9.507812 -3.195312 L 10.851562 -3.496094 C 11.417969 -3.621094 11.816406 -3.683594 12.054688 -3.683594 L 12.054688 -1.195312 L 9.585938 -1.503906 C 9.664062 -2.128906 9.769531 -2.898438 9.90625 -3.816406 C 10.042969 -4.742188 10.207031 -5.746094 10.402344 -6.824219 C 10.59375 -7.882812 10.796875 -8.992188 11.019531 -10.144531 C 11.238281 -11.300781 11.460938 -12.433594 11.6875 -13.542969 C 12.183594 -16.164062 12.757812 -18.9375 13.40625 -21.863281 L 15.835938 -21.324219 L 16.140625 -18.851562 L 12.671875 -18.425781 L 12.367188 -20.894531 L 14.800781 -20.371094 L 13.980469 -16.582031 C 13.867188 -16.050781 13.761719 -15.511719 13.660156 -14.96875 C 13.554688 -14.390625 13.441406 -13.820312 13.324219 -13.257812 C 13.214844 -12.722656 13.113281 -12.210938 13.019531 -11.722656 C 12.925781 -11.210938 12.835938 -10.761719 12.761719 -10.371094 L 7.886719 -10.339844 C 7.714844 -11.152344 7.515625 -12.136719 7.292969 -13.289062 L 6.648438 -16.644531 L 6.644531 -16.671875 C 6.441406 -17.878906 6.207031 -19.132812 5.949219 -20.4375 L 8.386719 -20.925781 L 8.503906 -18.441406 L 7.289062 -18.382812 C 6.890625 -18.363281 6.488281 -18.347656 6.089844 -18.339844 C 5.691406 -18.328125 5.347656 -18.324219 5.0625 -18.324219 L 4.464844 -18.324219 C 4.230469 -18.324219 3.957031 -18.335938 3.648438 -18.359375 L 3.839844 -20.839844 L 6.316406 -20.621094 C 6.238281 -19.722656 6.117188 -18.722656 5.960938 -17.628906 C 5.804688 -16.558594 5.632812 -15.441406 5.441406 -14.277344 C 5.246094 -13.117188 5.042969 -11.9375 4.820312 -10.746094 C 4.605469 -9.582031 4.402344 -8.457031 4.214844 -7.367188 L 4.207031 -7.328125 Z M 2.578125 0.640625 "/></g></g><g style="fill:#000000;fill-opacity:1;"><g transform="translate(91.082471, 26.050088)"><path style="stroke:none" d="M 10.863281 1.886719 L 9.300781 2.140625 L 4.488281 2.945312 L 5.121094 -2.207031 C 5.175781 -2.699219 5.222656 -3.203125 5.269531 -3.71875 C 5.316406 -4.257812 5.359375 -4.722656 5.398438 -5.109375 L 7.875 -4.863281 L 7.875 -2.375 L 5.402344 -2.375 L 5.402344 -4.863281 L 7.800781 -4.195312 L 6.222656 1.476562 L 4.601562 1.699219 C 4.167969 1.757812 3.660156 1.820312 3.074219 1.886719 L 1.480469 2.074219 L -4.085938 2.78125 L -0.734375 -8.335938 L 0.214844 -11.539062 L 1.210938 -14.882812 L 2.164062 -18.082031 C 2.460938 -19.082031 2.71875 -19.996094 2.941406 -20.828125 L 3.398438 -22.535156 L 5.164062 -22.667969 C 6.429688 -22.761719 7.722656 -22.871094 9.035156 -23.003906 C 10.308594 -23.128906 11.546875 -23.300781 12.753906 -23.515625 L 15.972656 -24.09375 L 15.667969 -20.835938 C 15.613281 -20.246094 15.554688 -19.507812 15.488281 -18.625 C 15.421875 -17.738281 15.363281 -16.777344 15.304688 -15.730469 L 15.136719 -12.410156 L 14.964844 -9 L 14.578125 1.324219 L 12.578125 1.65625 C 11.953125 1.761719 11.332031 1.84375 10.710938 1.90625 L 10.460938 -0.570312 Z M 10.0625 -3.023438 L 10.136719 -3.035156 L 10.214844 -3.042969 C 10.730469 -3.09375 11.246094 -3.164062 11.757812 -3.25 L 12.167969 -0.796875 L 9.683594 -0.890625 L 9.996094 -9.25 L 10.167969 -12.664062 L 10.335938 -15.996094 C 10.394531 -17.074219 10.457031 -18.074219 10.527344 -18.988281 C 10.59375 -19.90625 10.65625 -20.675781 10.714844 -21.300781 L 13.191406 -21.066406 L 13.628906 -18.617188 C 12.296875 -18.378906 10.929688 -18.191406 9.527344 -18.050781 C 8.171875 -17.917969 6.835938 -17.800781 5.527344 -17.703125 L 5.34375 -20.1875 L 7.75 -19.542969 C 7.515625 -18.667969 7.242188 -17.707031 6.933594 -16.660156 L 5.980469 -13.460938 L 4.988281 -10.125 L 4.03125 -6.902344 L 1.785156 0.546875 L -0.597656 -0.171875 L -0.910156 -2.636719 L 0.90625 -2.871094 L 2.496094 -3.054688 C 3.050781 -3.117188 3.527344 -3.179688 3.929688 -3.234375 L 4.265625 -0.769531 L 1.867188 -1.433594 L 3.511719 -7.347656 L 10.625 -7.347656 L 10.351562 -4.613281 C 10.3125 -4.242188 10.273438 -3.796875 10.226562 -3.277344 C 10.175781 -2.730469 10.121094 -2.171875 10.058594 -1.601562 L 9.832031 0.246094 L 7.363281 -0.0585938 L 6.953125 -2.511719 L 8.496094 -2.769531 Z M 6.085938 -10.191406 C 6.121094 -10.191406 6.21875 -10.195312 6.378906 -10.203125 L 7.007812 -10.234375 L 7.617188 -10.261719 C 7.660156 -10.261719 7.691406 -10.265625 7.710938 -10.265625 C 7.660156 -10.261719 7.601562 -10.25 7.527344 -10.230469 L 8.132812 -7.820312 L 5.644531 -7.820312 C 5.644531 -8.019531 5.660156 -8.296875 5.699219 -8.65625 C 5.726562 -8.914062 5.753906 -9.207031 5.777344 -9.539062 C 5.808594 -9.898438 5.84375 -10.292969 5.878906 -10.714844 L 5.996094 -11.945312 C 6.070312 -12.90625 6.164062 -13.957031 6.28125 -15.09375 L 8.757812 -14.839844 L 6.273438 -15.011719 L 6.445312 -17.484375 L 8.925781 -17.3125 L 9.09375 -14.832031 L 8.667969 -14.804688 L 8.5 -17.285156 L 10.902344 -16.644531 L 10.25 -14.199219 L 8.5 -7.109375 L 6.085938 -7.703125 Z M 2.90625 -5.214844 L 5.441406 -15.484375 L 6.558594 -19.648438 L 11.605469 -19.984375 L 11.234375 -14.628906 L 11.230469 -14.589844 C 11.121094 -13.488281 11.027344 -12.453125 10.949219 -11.484375 L 10.835938 -10.265625 C 10.800781 -9.855469 10.765625 -9.480469 10.738281 -9.136719 C 10.707031 -8.769531 10.679688 -8.4375 10.648438 -8.144531 C 10.628906 -7.957031 10.617188 -7.847656 10.617188 -7.820312 L 10.617188 -5.875 L 8.734375 -5.40625 C 8.5 -5.347656 8.207031 -5.308594 7.847656 -5.289062 L 7.234375 -5.261719 L 6.613281 -5.234375 C 6.375 -5.222656 6.199219 -5.214844 6.085938 -5.214844 Z M 2.90625 -5.214844 "/></g></g><g style="fill:#000000;fill-opacity:1;"><g transform="translate(104.614739, 26.050088)"><path style="stroke:none" d="M 0.125 -0.480469 C 0.558594 -2.554688 0.972656 -4.601562 1.367188 -6.621094 C 1.539062 -7.464844 1.707031 -8.347656 1.875 -9.261719 L 2.371094 -12 C 2.527344 -12.871094 2.664062 -13.714844 2.785156 -14.53125 C 2.90625 -15.367188 3.011719 -16.128906 3.105469 -16.824219 L 5.574219 -16.488281 L 5.25 -14.023438 C 4.957031 -14.0625 4.660156 -14.074219 4.355469 -14.0625 C 3.628906 -14.03125 2.910156 -14.121094 2.203125 -14.335938 L 0.324219 -14.910156 L 0.445312 -16.871094 C 0.460938 -17.125 0.46875 -17.421875 0.46875 -17.769531 C 0.46875 -18.207031 0.480469 -18.644531 0.5 -19.082031 L 0.660156 -23.035156 L 3.234375 -22.835938 C 3.695312 -22.800781 4.15625 -22.773438 4.617188 -22.757812 C 5.078125 -22.738281 5.539062 -22.730469 6 -22.730469 C 6.921875 -22.730469 7.8125 -22.753906 8.667969 -22.796875 C 9.539062 -22.84375 10.347656 -22.898438 11.085938 -22.960938 C 11.820312 -23.027344 12.539062 -23.101562 13.246094 -23.195312 L 16.691406 -23.636719 L 15.6875 -18.695312 C 15.59375 -18.261719 15.503906 -17.828125 15.421875 -17.394531 C 15.332031 -16.902344 15.242188 -16.476562 15.160156 -16.117188 L 14.820312 -14.679688 L 13.390625 -14.289062 C 12.851562 -14.140625 12.300781 -14.035156 11.746094 -13.972656 C 11.378906 -13.933594 11.011719 -13.878906 10.652344 -13.8125 L 10.207031 -16.261719 L 12.644531 -15.761719 C 12.511719 -15.125 12.371094 -14.421875 12.222656 -13.644531 C 12.074219 -12.878906 11.929688 -12.082031 11.792969 -11.257812 C 11.652344 -10.425781 11.515625 -9.582031 11.386719 -8.722656 C 11.253906 -7.839844 11.117188 -6.996094 10.984375 -6.1875 C 10.683594 -4.34375 10.40625 -2.425781 10.144531 -0.441406 L 9.898438 1.40625 L -0.613281 3.039062 Z M 4.992188 0.539062 L 2.558594 0.0273438 L 2.175781 -2.429688 L 7.292969 -3.226562 L 7.675781 -0.769531 L 5.210938 -1.09375 C 5.476562 -3.125 5.765625 -5.097656 6.074219 -7.003906 C 6.207031 -7.789062 6.335938 -8.613281 6.46875 -9.472656 C 6.601562 -10.355469 6.742188 -11.226562 6.886719 -12.085938 C 7.03125 -12.945312 7.183594 -13.78125 7.335938 -14.585938 C 7.492188 -15.382812 7.636719 -16.109375 7.769531 -16.765625 L 8.109375 -18.410156 L 9.761719 -18.710938 C 10.234375 -18.796875 10.714844 -18.867188 11.195312 -18.917969 C 11.496094 -18.953125 11.789062 -19.007812 12.082031 -19.089844 L 12.738281 -16.6875 L 10.316406 -17.257812 C 10.382812 -17.542969 10.453125 -17.894531 10.53125 -18.3125 C 10.621094 -18.792969 10.714844 -19.25 10.8125 -19.6875 L 11.125 -21.222656 L 13.5625 -20.726562 L 13.878906 -18.257812 C 13.105469 -18.160156 12.316406 -18.074219 11.515625 -18.003906 C 10.71875 -17.9375 9.859375 -17.878906 8.929688 -17.828125 C 7.984375 -17.78125 7.007812 -17.753906 6 -17.753906 C 5.472656 -17.753906 4.949219 -17.765625 4.425781 -17.785156 C 3.898438 -17.804688 3.375 -17.835938 2.851562 -17.875 L 3.042969 -20.355469 L 5.527344 -20.253906 L 5.46875 -18.84375 C 5.453125 -18.484375 5.445312 -18.128906 5.445312 -17.769531 C 5.445312 -17.320312 5.433594 -16.917969 5.410156 -16.5625 L 2.929688 -16.71875 L 3.652344 -19.097656 C 3.816406 -19.046875 3.980469 -19.023438 4.144531 -19.03125 C 4.734375 -19.058594 5.316406 -19.03125 5.894531 -18.957031 L 8.371094 -18.632812 L 8.039062 -16.15625 C 7.941406 -15.445312 7.832031 -14.664062 7.707031 -13.8125 C 7.582031 -12.941406 7.433594 -12.042969 7.265625 -11.113281 L 6.769531 -8.363281 C 6.59375 -7.421875 6.421875 -6.523438 6.25 -5.660156 C 5.851562 -3.625 5.433594 -1.558594 4.992188 0.539062 Z M 4.992188 0.539062 "/></g></g><g style="fill:#000000;fill-opacity:1;"><g transform="translate(116.128569, 26.050088)"><path style="stroke:none" d="M 18.410156 -15.378906 C 18.410156 -13.628906 18.21875 -11.96875 17.84375 -10.40625 C 17.46875 -8.859375 16.96875 -7.4375 16.34375 -6.132812 C 15.710938 -4.808594 14.96875 -3.621094 14.113281 -2.570312 C 13.273438 -1.53125 12.382812 -0.636719 11.445312 0.109375 C 10.460938 0.894531 9.453125 1.5 8.414062 1.921875 C 7.300781 2.375 6.210938 2.601562 5.144531 2.601562 C 4.15625 2.601562 3.238281 2.40625 2.394531 2.015625 C 1.535156 1.617188 0.796875 1.039062 0.175781 0.28125 C -0.410156 -0.441406 -0.863281 -1.324219 -1.175781 -2.371094 C -1.460938 -3.335938 -1.605469 -4.449219 -1.605469 -5.714844 C -1.605469 -6.960938 -1.453125 -8.261719 -1.148438 -9.617188 C -0.855469 -10.917969 -0.457031 -12.203125 0.0429688 -13.476562 C 0.558594 -14.78125 1.1875 -16.023438 1.9375 -17.199219 C 2.695312 -18.390625 3.535156 -19.453125 4.457031 -20.386719 C 5.4375 -21.375 6.496094 -22.167969 7.636719 -22.761719 C 8.90625 -23.421875 10.238281 -23.753906 11.628906 -23.753906 C 12.957031 -23.753906 14.105469 -23.453125 15.066406 -22.847656 C 15.988281 -22.273438 16.707031 -21.519531 17.226562 -20.589844 C 17.667969 -19.792969 17.984375 -18.914062 18.167969 -17.945312 C 18.328125 -17.09375 18.410156 -16.238281 18.410156 -15.378906 Z M 13.433594 -15.378906 C 13.433594 -15.925781 13.382812 -16.472656 13.277344 -17.023438 C 13.195312 -17.457031 13.0625 -17.835938 12.882812 -18.160156 C 12.777344 -18.351562 12.625 -18.507812 12.425781 -18.632812 C 12.269531 -18.730469 12.003906 -18.777344 11.628906 -18.777344 C 11.046875 -18.777344 10.484375 -18.636719 9.933594 -18.347656 C 9.253906 -17.996094 8.609375 -17.507812 7.996094 -16.886719 C 7.324219 -16.207031 6.703125 -15.421875 6.136719 -14.527344 C 5.558594 -13.621094 5.070312 -12.664062 4.675781 -11.65625 C 4.265625 -10.617188 3.945312 -9.574219 3.707031 -8.519531 C 3.480469 -7.527344 3.371094 -6.589844 3.371094 -5.714844 C 3.371094 -4.933594 3.445312 -4.292969 3.59375 -3.796875 C 3.714844 -3.382812 3.863281 -3.074219 4.03125 -2.867188 C 4.167969 -2.699219 4.320312 -2.574219 4.484375 -2.5 C 4.664062 -2.414062 4.886719 -2.375 5.144531 -2.375 C 5.558594 -2.375 6.023438 -2.480469 6.539062 -2.6875 C 7.132812 -2.929688 7.734375 -3.292969 8.34375 -3.777344 C 8.996094 -4.300781 9.632812 -4.941406 10.25 -5.703125 C 10.855469 -6.453125 11.394531 -7.3125 11.859375 -8.28125 C 12.332031 -9.269531 12.714844 -10.367188 13.003906 -11.570312 C 13.289062 -12.753906 13.433594 -14.023438 13.433594 -15.378906 Z M 7.605469 -6.453125 C 7.605469 -6.515625 7.601562 -6.558594 7.589844 -6.585938 C 7.578125 -6.628906 7.550781 -6.675781 7.507812 -6.730469 C 7.457031 -6.792969 7.40625 -6.84375 7.351562 -6.878906 C 7.148438 -7.003906 6.925781 -7.066406 6.679688 -7.066406 C 6.90625 -7.066406 7.113281 -7.152344 7.304688 -7.320312 C 7.734375 -7.699219 8.097656 -8.175781 8.390625 -8.75 C 8.738281 -9.433594 9.007812 -10.164062 9.199219 -10.941406 C 9.386719 -11.714844 9.480469 -12.398438 9.480469 -12.992188 C 9.480469 -13.132812 9.472656 -13.289062 9.453125 -13.46875 C 9.445312 -13.523438 9.4375 -13.566406 9.425781 -13.597656 C 9.484375 -13.441406 9.574219 -13.3125 9.699219 -13.199219 C 9.863281 -13.050781 10.050781 -12.941406 10.253906 -12.875 C 10.390625 -12.828125 10.515625 -12.808594 10.632812 -12.808594 C 10.480469 -12.808594 10.34375 -12.773438 10.222656 -12.699219 C 9.96875 -12.546875 9.730469 -12.335938 9.507812 -12.066406 C 9.226562 -11.714844 8.972656 -11.3125 8.753906 -10.855469 C 8.496094 -10.3125 8.273438 -9.761719 8.089844 -9.207031 C 7.917969 -8.6875 7.792969 -8.1875 7.71875 -7.703125 C 7.644531 -7.199219 7.605469 -6.785156 7.605469 -6.453125 Z M 2.628906 -6.453125 C 2.628906 -7.035156 2.6875 -7.699219 2.800781 -8.445312 C 2.914062 -9.214844 3.105469 -9.992188 3.367188 -10.78125 C 3.617188 -11.53125 3.917969 -12.269531 4.265625 -13 C 4.652344 -13.8125 5.113281 -14.542969 5.644531 -15.199219 C 6.238281 -15.933594 6.921875 -16.527344 7.6875 -16.980469 C 8.589844 -17.515625 9.570312 -17.785156 10.632812 -17.785156 C 11.570312 -17.785156 12.363281 -17.492188 13.015625 -16.90625 C 13.5 -16.476562 13.855469 -15.953125 14.085938 -15.34375 C 14.246094 -14.921875 14.347656 -14.472656 14.398438 -13.996094 C 14.4375 -13.644531 14.457031 -13.308594 14.457031 -12.992188 C 14.457031 -11.996094 14.316406 -10.917969 14.03125 -9.757812 C 13.746094 -8.601562 13.34375 -7.511719 12.820312 -6.488281 C 12.242188 -5.355469 11.503906 -4.390625 10.605469 -3.597656 C 9.472656 -2.589844 8.164062 -2.089844 6.679688 -2.089844 C 5.980469 -2.089844 5.332031 -2.273438 4.730469 -2.648438 C 4.28125 -2.925781 3.894531 -3.269531 3.582031 -3.675781 C 3.273438 -4.070312 3.035156 -4.515625 2.871094 -5.011719 C 2.710938 -5.496094 2.628906 -5.976562 2.628906 -6.453125 Z M 2.628906 -6.453125 "/></g></g><g style="fill:#000000;fill-opacity:1;"><g transform="translate(131.366559, 26.050088)"><path style="stroke:none" d="M -2.324219 -0.460938 L -0.847656 -7.851562 L 1.59375 -7.363281 L -0.863281 -7.773438 C -0.6875 -8.8125 -0.496094 -9.894531 -0.285156 -11.023438 C -0.078125 -12.113281 0.113281 -13.195312 0.289062 -14.265625 L 0.800781 -17.414062 C 0.953125 -18.386719 1.078125 -19.269531 1.167969 -20.070312 L 1.347656 -21.671875 L 2.890625 -22.160156 C 4.109375 -22.546875 5.421875 -22.828125 6.816406 -23.007812 C 8.175781 -23.183594 9.523438 -23.269531 10.859375 -23.269531 C 11.882812 -23.269531 12.769531 -23.136719 13.523438 -22.871094 C 14.414062 -22.558594 15.140625 -22.082031 15.699219 -21.445312 C 16.226562 -20.84375 16.601562 -20.148438 16.816406 -19.363281 C 16.988281 -18.730469 17.074219 -18.046875 17.074219 -17.3125 C 17.074219 -16.265625 16.890625 -15.238281 16.523438 -14.230469 C 16.1875 -13.308594 15.738281 -12.433594 15.175781 -11.605469 C 14.628906 -10.800781 13.996094 -10.0625 13.285156 -9.398438 C 12.539062 -8.699219 11.730469 -8.128906 10.859375 -7.679688 L 9.722656 -9.894531 L 11.992188 -10.914062 C 12.339844 -10.144531 12.707031 -9.304688 13.101562 -8.390625 C 13.496094 -7.484375 13.863281 -6.617188 14.207031 -5.792969 C 14.589844 -4.835938 14.980469 -3.886719 15.371094 -2.953125 L 16.398438 -0.511719 L 7.0625 2.738281 L 6.296875 0.289062 C 5.910156 -0.945312 5.566406 -2.101562 5.253906 -3.183594 C 5.125 -3.605469 4.996094 -4.054688 4.859375 -4.535156 C 4.722656 -5.007812 4.597656 -5.457031 4.480469 -5.882812 C 4.355469 -6.335938 4.253906 -6.742188 4.171875 -7.109375 C 4.070312 -7.546875 4.003906 -7.925781 3.976562 -8.246094 L 6.453125 -8.472656 L 7.183594 -6.09375 L 6.816406 -5.980469 L 6.085938 -8.359375 L 8.53125 -7.898438 C 8.414062 -7.285156 8.273438 -6.566406 8.113281 -5.742188 C 7.953125 -4.945312 7.8125 -4.179688 7.683594 -3.4375 L 6.871094 0.847656 L -3.105469 3.433594 Z M 2.554688 0.515625 L 0.113281 0.0273438 L -0.511719 -2.378906 L 4.09375 -3.574219 L 4.71875 -1.164062 L 2.273438 -1.628906 L 2.78125 -4.296875 C 2.917969 -5.070312 3.066406 -5.875 3.230469 -6.707031 C 3.390625 -7.515625 3.527344 -8.21875 3.640625 -8.816406 L 3.914062 -10.292969 L 8.652344 -11.753906 L 8.929688 -8.699219 C 8.941406 -8.601562 8.96875 -8.441406 9.019531 -8.214844 C 9.089844 -7.917969 9.175781 -7.578125 9.28125 -7.195312 C 9.390625 -6.785156 9.511719 -6.355469 9.640625 -5.902344 C 9.769531 -5.449219 9.902344 -5 10.039062 -4.550781 C 10.335938 -3.507812 10.671875 -2.390625 11.046875 -1.195312 L 8.671875 -0.453125 L 7.851562 -2.804688 L 12.257812 -4.339844 L 13.078125 -1.988281 L 10.785156 -1.027344 C 10.378906 -1.988281 9.992188 -2.9375 9.617188 -3.871094 C 9.28125 -4.679688 8.917969 -5.527344 8.535156 -6.421875 C 8.148438 -7.308594 7.789062 -8.125 7.453125 -8.871094 L 6.484375 -11.027344 L 8.585938 -12.105469 C 9.042969 -12.34375 9.476562 -12.652344 9.886719 -13.035156 C 10.332031 -13.449219 10.722656 -13.90625 11.0625 -14.40625 C 11.394531 -14.890625 11.65625 -15.398438 11.847656 -15.933594 C 12.015625 -16.386719 12.097656 -16.847656 12.097656 -17.3125 C 12.097656 -17.605469 12.070312 -17.851562 12.015625 -18.050781 C 12 -18.097656 11.984375 -18.136719 11.960938 -18.160156 C 11.980469 -18.140625 11.996094 -18.125 12.003906 -18.121094 C 11.972656 -18.136719 11.929688 -18.160156 11.867188 -18.179688 C 11.652344 -18.257812 11.316406 -18.292969 10.859375 -18.292969 C 9.734375 -18.292969 8.597656 -18.222656 7.453125 -18.074219 C 6.347656 -17.929688 5.328125 -17.710938 4.386719 -17.414062 L 3.640625 -19.789062 L 6.109375 -19.507812 C 6.011719 -18.636719 5.878906 -17.671875 5.710938 -16.617188 L 5.199219 -13.453125 C 5.015625 -12.347656 4.816406 -11.230469 4.605469 -10.101562 C 4.402344 -9.011719 4.214844 -7.960938 4.046875 -6.953125 L 4.039062 -6.914062 Z M 6.535156 -14.785156 C 6.523438 -14.785156 6.515625 -14.78125 6.507812 -14.78125 C 6.527344 -14.785156 6.554688 -14.792969 6.585938 -14.804688 C 6.695312 -14.84375 6.832031 -14.902344 6.988281 -14.980469 C 7.367188 -15.175781 7.730469 -15.40625 8.078125 -15.679688 C 8.421875 -15.945312 8.710938 -16.214844 8.941406 -16.488281 C 8.96875 -16.519531 8.988281 -16.542969 9.003906 -16.5625 C 8.996094 -16.554688 8.988281 -16.539062 8.980469 -16.519531 C 8.898438 -16.351562 8.855469 -16.152344 8.855469 -15.921875 C 8.855469 -15.707031 8.898438 -15.492188 8.984375 -15.277344 C 9.089844 -15.015625 9.246094 -14.789062 9.453125 -14.59375 C 9.613281 -14.445312 9.769531 -14.347656 9.917969 -14.308594 C 9.847656 -14.328125 9.757812 -14.339844 9.644531 -14.347656 C 9.414062 -14.363281 9.175781 -14.371094 8.925781 -14.371094 C 8.753906 -14.371094 8.578125 -14.367188 8.394531 -14.359375 C 8.140625 -14.347656 7.910156 -14.34375 7.703125 -14.34375 L 7.703125 -16.832031 L 10.144531 -16.339844 L 9.234375 -11.820312 L 6.792969 -12.308594 Z M 3.6875 -9.480469 L 5.667969 -19.320312 L 7.703125 -19.320312 C 7.839844 -19.320312 7.996094 -19.324219 8.179688 -19.332031 C 8.433594 -19.339844 8.683594 -19.347656 8.925781 -19.347656 C 9.285156 -19.347656 9.632812 -19.335938 9.972656 -19.3125 C 10.429688 -19.28125 10.859375 -19.210938 11.261719 -19.097656 C 11.886719 -18.925781 12.410156 -18.636719 12.835938 -18.242188 C 13.175781 -17.925781 13.433594 -17.554688 13.605469 -17.125 C 13.753906 -16.746094 13.832031 -16.34375 13.832031 -15.921875 C 13.832031 -15.003906 13.460938 -14.113281 12.722656 -13.25 C 12.273438 -12.726562 11.746094 -12.226562 11.140625 -11.757812 C 10.539062 -11.289062 9.910156 -10.886719 9.246094 -10.546875 C 8.449219 -10.144531 7.722656 -9.90625 7.054688 -9.835938 Z M 3.6875 -9.480469 "/></g></g><g style="fill:#ff0095;fill-opacity:1;"><g transform="translate(3.037327, 26.050088)"><path style="stroke:none" d="M 12.140625 -6.109375 C 11.679688 -5.066406 11.171875 -4.160156 10.609375 -3.390625 C 10.054688 -2.628906 9.472656 -1.988281 8.859375 -1.46875 C 8.242188 -0.945312 7.625 -0.5625 7 -0.3125 C 6.375 -0.0625 5.765625 0.0625 5.171875 0.0625 C 4.585938 0.0625 4.050781 -0.0664062 3.5625 -0.328125 C 3.082031 -0.597656 2.660156 -1 2.296875 -1.53125 C 1.941406 -2.0625 1.65625 -2.710938 1.4375 -3.484375 C 1.21875 -4.265625 1.109375 -5.179688 1.109375 -6.234375 C 1.109375 -8.015625 1.351562 -9.769531 1.84375 -11.5 C 2.34375 -13.238281 3.035156 -14.796875 3.921875 -16.171875 C 4.816406 -17.554688 5.875 -18.671875 7.09375 -19.515625 C 8.3125 -20.359375 9.660156 -20.78125 11.140625 -20.78125 C 11.597656 -20.78125 12.035156 -20.6875 12.453125 -20.5 C 12.867188 -20.3125 13.226562 -20.046875 13.53125 -19.703125 C 13.832031 -19.367188 14.070312 -18.953125 14.25 -18.453125 C 14.4375 -17.960938 14.53125 -17.414062 14.53125 -16.8125 C 14.53125 -16.695312 14.53125 -16.578125 14.53125 -16.453125 C 14.53125 -16.328125 14.519531 -16.195312 14.5 -16.0625 L 10.78125 -15.078125 C 10.550781 -15.546875 10.285156 -15.78125 9.984375 -15.78125 C 9.679688 -15.78125 9.363281 -15.601562 9.03125 -15.25 C 8.695312 -14.90625 8.367188 -14.453125 8.046875 -13.890625 C 7.722656 -13.328125 7.410156 -12.703125 7.109375 -12.015625 C 6.804688 -11.328125 6.539062 -10.628906 6.3125 -9.921875 C 6.082031 -9.222656 5.894531 -8.554688 5.75 -7.921875 C 5.613281 -7.285156 5.546875 -6.769531 5.546875 -6.375 C 5.546875 -5.757812 5.625 -5.328125 5.78125 -5.078125 C 5.945312 -4.835938 6.160156 -4.71875 6.421875 -4.71875 C 6.628906 -4.71875 6.863281 -4.796875 7.125 -4.953125 C 7.394531 -5.117188 7.644531 -5.328125 7.875 -5.578125 C 8.101562 -5.835938 8.3125 -6.128906 8.5 -6.453125 C 8.6875 -6.773438 8.820312 -7.097656 8.90625 -7.421875 Z M 12.140625 -6.109375 "/></g></g><g style="fill:#ff0095;fill-opacity:1;"><g transform="translate(16.029456, 26.050088)"><path style="stroke:none" d="M 15.921875 -15.390625 C 15.921875 -13.828125 15.753906 -12.359375 15.421875 -10.984375 C 15.097656 -9.609375 14.660156 -8.347656 14.109375 -7.203125 C 13.554688 -6.054688 12.914062 -5.03125 12.1875 -4.125 C 11.457031 -3.226562 10.691406 -2.460938 9.890625 -1.828125 C 9.097656 -1.191406 8.289062 -0.707031 7.46875 -0.375 C 6.65625 -0.0507812 5.878906 0.109375 5.140625 0.109375 C 4.515625 0.109375 3.945312 -0.00390625 3.4375 -0.234375 C 2.925781 -0.472656 2.476562 -0.820312 2.09375 -1.28125 C 1.71875 -1.75 1.421875 -2.347656 1.203125 -3.078125 C 0.984375 -3.816406 0.875 -4.695312 0.875 -5.71875 C 0.875 -6.78125 1.003906 -7.894531 1.265625 -9.0625 C 1.535156 -10.238281 1.898438 -11.40625 2.359375 -12.5625 C 2.816406 -13.71875 3.375 -14.816406 4.03125 -15.859375 C 4.695312 -16.910156 5.425781 -17.835938 6.21875 -18.640625 C 7.019531 -19.441406 7.875 -20.078125 8.78125 -20.546875 C 9.695312 -21.023438 10.644531 -21.265625 11.625 -21.265625 C 12.476562 -21.265625 13.1875 -21.085938 13.75 -20.734375 C 14.3125 -20.390625 14.75 -19.9375 15.0625 -19.375 C 15.375 -18.820312 15.59375 -18.191406 15.71875 -17.484375 C 15.851562 -16.785156 15.921875 -16.085938 15.921875 -15.390625 Z M 5.125 -6.453125 C 5.125 -6.242188 5.160156 -6.023438 5.234375 -5.796875 C 5.304688 -5.566406 5.410156 -5.367188 5.546875 -5.203125 C 5.679688 -5.035156 5.847656 -4.890625 6.046875 -4.765625 C 6.242188 -4.640625 6.457031 -4.578125 6.6875 -4.578125 C 7.539062 -4.578125 8.296875 -4.867188 8.953125 -5.453125 C 9.617188 -6.046875 10.171875 -6.769531 10.609375 -7.625 C 11.046875 -8.476562 11.378906 -9.382812 11.609375 -10.34375 C 11.847656 -11.3125 11.96875 -12.195312 11.96875 -13 C 11.96875 -13.226562 11.953125 -13.472656 11.921875 -13.734375 C 11.898438 -14.003906 11.84375 -14.25 11.75 -14.46875 C 11.664062 -14.695312 11.535156 -14.890625 11.359375 -15.046875 C 11.179688 -15.210938 10.941406 -15.296875 10.640625 -15.296875 C 10.023438 -15.296875 9.460938 -15.144531 8.953125 -14.84375 C 8.441406 -14.539062 7.984375 -14.132812 7.578125 -13.625 C 7.171875 -13.125 6.816406 -12.554688 6.515625 -11.921875 C 6.210938 -11.296875 5.953125 -10.65625 5.734375 -10 C 5.515625 -9.34375 5.359375 -8.703125 5.265625 -8.078125 C 5.171875 -7.453125 5.125 -6.910156 5.125 -6.453125 Z M 5.125 -6.453125 "/></g></g><g style="fill:#ff0095;fill-opacity:1;"><g transform="translate(31.267446, 26.050088)"><path style="stroke:none" d="M -0.859375 -0.171875 C -0.0234375 -2.691406 0.769531 -5.164062 1.53125 -7.59375 C 1.851562 -8.613281 2.1875 -9.679688 2.53125 -10.796875 C 2.875 -11.921875 3.210938 -13.03125 3.546875 -14.125 C 3.890625 -15.226562 4.207031 -16.289062 4.5 -17.3125 C 4.800781 -18.34375 5.066406 -19.289062 5.296875 -20.15625 C 6.335938 -20.15625 7.320312 -20.210938 8.25 -20.328125 C 9.175781 -20.441406 10.179688 -20.546875 11.265625 -20.640625 C 11.203125 -20.222656 11.140625 -19.753906 11.078125 -19.234375 C 11.015625 -18.710938 10.9375 -18.164062 10.84375 -17.59375 C 10.757812 -17.03125 10.671875 -16.445312 10.578125 -15.84375 C 10.484375 -15.238281 10.367188 -14.460938 10.234375 -13.515625 C 10.097656 -12.566406 9.921875 -11.378906 9.703125 -9.953125 L 10.0625 -9.953125 C 10.613281 -11.390625 11.066406 -12.585938 11.421875 -13.546875 C 11.785156 -14.503906 12.082031 -15.285156 12.3125 -15.890625 C 12.539062 -16.503906 12.769531 -17.097656 13 -17.671875 C 13.238281 -18.253906 13.46875 -18.804688 13.6875 -19.328125 C 13.90625 -19.847656 14.109375 -20.304688 14.296875 -20.703125 C 14.773438 -20.742188 15.222656 -20.789062 15.640625 -20.84375 C 16.054688 -20.90625 16.472656 -20.96875 16.890625 -21.03125 C 17.304688 -21.09375 17.726562 -21.15625 18.15625 -21.21875 C 18.582031 -21.289062 19.050781 -21.375 19.5625 -21.46875 C 19.375 -20.375 19.191406 -19.25 19.015625 -18.09375 C 18.847656 -16.9375 18.695312 -15.78125 18.5625 -14.625 C 18.4375 -13.476562 18.3125 -12.347656 18.1875 -11.234375 C 18.0625 -10.117188 17.953125 -9.054688 17.859375 -8.046875 C 17.628906 -5.691406 17.429688 -3.398438 17.265625 -1.171875 L 12.3125 -0.28125 C 12.3125 -0.375 12.328125 -0.628906 12.359375 -1.046875 C 12.390625 -1.460938 12.425781 -1.972656 12.46875 -2.578125 C 12.519531 -3.191406 12.585938 -3.867188 12.671875 -4.609375 C 12.753906 -5.347656 12.835938 -6.085938 12.921875 -6.828125 C 13.003906 -7.566406 13.09375 -8.28125 13.1875 -8.96875 C 13.289062 -9.664062 13.390625 -10.257812 13.484375 -10.75 L 13.21875 -10.75 C 12.957031 -9.957031 12.664062 -9.117188 12.34375 -8.234375 C 12.019531 -7.347656 11.691406 -6.453125 11.359375 -5.546875 C 11.023438 -4.640625 10.695312 -3.75 10.375 -2.875 C 10.050781 -2 9.769531 -1.164062 9.53125 -0.375 C 8.863281 -0.351562 8.289062 -0.328125 7.8125 -0.296875 C 7.34375 -0.265625 6.796875 -0.234375 6.171875 -0.203125 L 7.078125 -10.75 L 6.65625 -10.75 C 6.613281 -10.5 6.515625 -10.082031 6.359375 -9.5 C 6.210938 -8.925781 6.039062 -8.265625 5.84375 -7.515625 C 5.644531 -6.773438 5.429688 -6 5.203125 -5.1875 C 4.972656 -4.382812 4.757812 -3.632812 4.5625 -2.9375 C 4.363281 -2.25 4.195312 -1.679688 4.0625 -1.234375 C 3.9375 -0.785156 3.863281 -0.535156 3.84375 -0.484375 Z M -0.859375 -0.171875 "/></g></g><g style="fill:#ff0095;fill-opacity:1;"><g transform="translate(50.087464, 26.050088)"><path style="stroke:none" d="M 4.828125 -0.5625 C 4.660156 -0.5625 4.328125 -0.535156 3.828125 -0.484375 C 3.328125 -0.441406 2.8125 -0.390625 2.28125 -0.328125 C 1.75 -0.265625 1.269531 -0.203125 0.84375 -0.140625 C 0.414062 -0.0859375 0.179688 -0.0507812 0.140625 -0.03125 C 0.328125 -0.84375 0.519531 -1.742188 0.71875 -2.734375 C 0.925781 -3.734375 1.132812 -4.773438 1.34375 -5.859375 C 1.550781 -6.953125 1.75 -8.054688 1.9375 -9.171875 C 2.125 -10.296875 2.300781 -11.378906 2.46875 -12.421875 C 2.875 -14.847656 3.273438 -17.34375 3.671875 -19.90625 L 8.109375 -20.625 C 7.671875 -18.082031 7.242188 -15.585938 6.828125 -13.140625 C 6.648438 -12.097656 6.472656 -11.015625 6.296875 -9.890625 C 6.117188 -8.773438 5.9375 -7.664062 5.75 -6.5625 C 5.570312 -5.46875 5.40625 -4.398438 5.25 -3.359375 C 5.101562 -2.328125 4.960938 -1.394531 4.828125 -0.5625 Z M 4.828125 -0.5625 "/></g></g><g style="fill:#ff0095;fill-opacity:1;"><g transform="translate(57.052693, 26.050088)"><path style="stroke:none" d="M 12.140625 -6.109375 C 11.679688 -5.066406 11.171875 -4.160156 10.609375 -3.390625 C 10.054688 -2.628906 9.472656 -1.988281 8.859375 -1.46875 C 8.242188 -0.945312 7.625 -0.5625 7 -0.3125 C 6.375 -0.0625 5.765625 0.0625 5.171875 0.0625 C 4.585938 0.0625 4.050781 -0.0664062 3.5625 -0.328125 C 3.082031 -0.597656 2.660156 -1 2.296875 -1.53125 C 1.941406 -2.0625 1.65625 -2.710938 1.4375 -3.484375 C 1.21875 -4.265625 1.109375 -5.179688 1.109375 -6.234375 C 1.109375 -8.015625 1.351562 -9.769531 1.84375 -11.5 C 2.34375 -13.238281 3.035156 -14.796875 3.921875 -16.171875 C 4.816406 -17.554688 5.875 -18.671875 7.09375 -19.515625 C 8.3125 -20.359375 9.660156 -20.78125 11.140625 -20.78125 C 11.597656 -20.78125 12.035156 -20.6875 12.453125 -20.5 C 12.867188 -20.3125 13.226562 -20.046875 13.53125 -19.703125 C 13.832031 -19.367188 14.070312 -18.953125 14.25 -18.453125 C 14.4375 -17.960938 14.53125 -17.414062 14.53125 -16.8125 C 14.53125 -16.695312 14.53125 -16.578125 14.53125 -16.453125 C 14.53125 -16.328125 14.519531 -16.195312 14.5 -16.0625 L 10.78125 -15.078125 C 10.550781 -15.546875 10.285156 -15.78125 9.984375 -15.78125 C 9.679688 -15.78125 9.363281 -15.601562 9.03125 -15.25 C 8.695312 -14.90625 8.367188 -14.453125 8.046875 -13.890625 C 7.722656 -13.328125 7.410156 -12.703125 7.109375 -12.015625 C 6.804688 -11.328125 6.539062 -10.628906 6.3125 -9.921875 C 6.082031 -9.222656 5.894531 -8.554688 5.75 -7.921875 C 5.613281 -7.285156 5.546875 -6.769531 5.546875 -6.375 C 5.546875 -5.757812 5.625 -5.328125 5.78125 -5.078125 C 5.945312 -4.835938 6.160156 -4.71875 6.421875 -4.71875 C 6.628906 -4.71875 6.863281 -4.796875 7.125 -4.953125 C 7.394531 -5.117188 7.644531 -5.328125 7.875 -5.578125 C 8.101562 -5.835938 8.3125 -6.128906 8.5 -6.453125 C 8.6875 -6.773438 8.820312 -7.097656 8.90625 -7.421875 Z M 12.140625 -6.109375 "/></g></g><g style="fill:#ff0095;fill-opacity:1;"><g transform="translate(70.044822, 26.050088)"><path style="stroke:none" d="M 4.828125 -0.5625 C 4.660156 -0.5625 4.328125 -0.535156 3.828125 -0.484375 C 3.328125 -0.441406 2.8125 -0.390625 2.28125 -0.328125 C 1.75 -0.265625 1.269531 -0.203125 0.84375 -0.140625 C 0.414062 -0.0859375 0.179688 -0.0507812 0.140625 -0.03125 C 0.328125 -0.84375 0.519531 -1.742188 0.71875 -2.734375 C 0.925781 -3.734375 1.132812 -4.773438 1.34375 -5.859375 C 1.550781 -6.953125 1.75 -8.054688 1.9375 -9.171875 C 2.125 -10.296875 2.300781 -11.378906 2.46875 -12.421875 C 2.875 -14.847656 3.273438 -17.34375 3.671875 -19.90625 L 8.109375 -20.625 C 7.671875 -18.082031 7.242188 -15.585938 6.828125 -13.140625 C 6.648438 -12.097656 6.472656 -11.015625 6.296875 -9.890625 C 6.117188 -8.773438 5.9375 -7.664062 5.75 -6.5625 C 5.570312 -5.46875 5.40625 -4.398438 5.25 -3.359375 C 5.101562 -2.328125 4.960938 -1.394531 4.828125 -0.5625 Z M 4.828125 -0.5625 "/></g></g><g style="fill:#ff0095;fill-opacity:1;"><g transform="translate(77.010051, 26.050088)"><path style="stroke:none" d="M 0.140625 0.140625 C 0.710938 -2.585938 1.253906 -5.234375 1.765625 -7.796875 C 1.953125 -8.890625 2.15625 -10.023438 2.375 -11.203125 C 2.59375 -12.378906 2.796875 -13.539062 2.984375 -14.6875 C 3.171875 -15.832031 3.335938 -16.929688 3.484375 -17.984375 C 3.640625 -19.035156 3.757812 -19.988281 3.84375 -20.84375 C 4.082031 -20.820312 4.285156 -20.8125 4.453125 -20.8125 C 4.628906 -20.8125 4.832031 -20.8125 5.0625 -20.8125 C 5.320312 -20.8125 5.640625 -20.816406 6.015625 -20.828125 C 6.398438 -20.835938 6.78125 -20.851562 7.15625 -20.875 C 7.539062 -20.894531 7.953125 -20.914062 8.390625 -20.9375 C 8.648438 -19.601562 8.882812 -18.320312 9.09375 -17.09375 C 9.300781 -16.007812 9.515625 -14.898438 9.734375 -13.765625 C 9.953125 -12.628906 10.148438 -11.660156 10.328125 -10.859375 C 10.398438 -11.242188 10.484375 -11.6875 10.578125 -12.1875 C 10.671875 -12.6875 10.773438 -13.210938 10.890625 -13.765625 C 11.003906 -14.316406 11.113281 -14.867188 11.21875 -15.421875 C 11.320312 -15.984375 11.429688 -16.539062 11.546875 -17.09375 C 11.804688 -18.320312 12.082031 -19.59375 12.375 -20.90625 L 15.84375 -21.328125 C 15.195312 -18.429688 14.628906 -15.679688 14.140625 -13.078125 C 13.910156 -11.960938 13.6875 -10.832031 13.46875 -9.6875 C 13.25 -8.539062 13.039062 -7.441406 12.84375 -6.390625 C 12.65625 -5.335938 12.492188 -4.359375 12.359375 -3.453125 C 12.234375 -2.554688 12.132812 -1.800781 12.0625 -1.1875 C 12 -1.1875 11.773438 -1.144531 11.390625 -1.0625 C 11.003906 -0.976562 10.554688 -0.878906 10.046875 -0.765625 C 9.546875 -0.648438 9.046875 -0.535156 8.546875 -0.421875 C 8.046875 -0.304688 7.671875 -0.203125 7.421875 -0.109375 C 7.304688 -1.628906 7.179688 -3.070312 7.046875 -4.4375 C 6.992188 -5.019531 6.929688 -5.617188 6.859375 -6.234375 C 6.796875 -6.859375 6.726562 -7.453125 6.65625 -8.015625 C 6.582031 -8.585938 6.503906 -9.117188 6.421875 -9.609375 C 6.347656 -10.097656 6.273438 -10.523438 6.203125 -10.890625 C 6.140625 -10.523438 6.0625 -10.101562 5.96875 -9.625 C 5.875 -9.15625 5.78125 -8.65625 5.6875 -8.125 C 5.59375 -7.601562 5.5 -7.050781 5.40625 -6.46875 C 5.3125 -5.894531 5.207031 -5.34375 5.09375 -4.8125 C 4.84375 -3.539062 4.578125 -2.210938 4.296875 -0.828125 Z M 0.140625 0.140625 "/></g></g><g style="fill:#ff0095;fill-opacity:1;"><g transform="translate(91.082471, 26.050088)"><path style="stroke:none" d="M 10.46875 -0.5625 C 9.988281 -0.488281 9.460938 -0.40625 8.890625 -0.3125 C 8.328125 -0.21875 7.816406 -0.132812 7.359375 -0.0625 C 7.441406 -0.6875 7.519531 -1.300781 7.59375 -1.90625 C 7.644531 -2.4375 7.695312 -2.96875 7.75 -3.5 C 7.800781 -4.03125 7.84375 -4.484375 7.875 -4.859375 L 5.40625 -4.859375 L 4.265625 -0.765625 C 3.847656 -0.710938 3.351562 -0.648438 2.78125 -0.578125 C 2.21875 -0.515625 1.6875 -0.453125 1.1875 -0.390625 C 0.582031 -0.316406 -0.0078125 -0.242188 -0.59375 -0.171875 C 0.164062 -2.691406 0.914062 -5.175781 1.65625 -7.625 C 1.957031 -8.644531 2.269531 -9.710938 2.59375 -10.828125 C 2.925781 -11.953125 3.257812 -13.066406 3.59375 -14.171875 C 3.925781 -15.285156 4.242188 -16.351562 4.546875 -17.375 C 4.847656 -18.394531 5.113281 -19.332031 5.34375 -20.1875 C 6.632812 -20.28125 7.945312 -20.394531 9.28125 -20.53125 C 10.625 -20.664062 11.925781 -20.847656 13.1875 -21.078125 C 13.132812 -20.460938 13.070312 -19.703125 13 -18.796875 C 12.9375 -17.898438 12.875 -16.921875 12.8125 -15.859375 C 12.757812 -14.804688 12.703125 -13.703125 12.640625 -12.546875 C 12.585938 -11.390625 12.535156 -10.25 12.484375 -9.125 C 12.390625 -6.507812 12.285156 -3.734375 12.171875 -0.796875 C 11.597656 -0.703125 11.03125 -0.625 10.46875 -0.5625 Z M 6.078125 -7.703125 C 6.160156 -7.703125 6.300781 -7.707031 6.5 -7.71875 C 6.695312 -7.726562 6.90625 -7.738281 7.125 -7.75 C 7.34375 -7.757812 7.546875 -7.769531 7.734375 -7.78125 C 7.921875 -7.789062 8.054688 -7.804688 8.140625 -7.828125 C 8.140625 -7.929688 8.148438 -8.117188 8.171875 -8.390625 C 8.203125 -8.671875 8.226562 -8.988281 8.25 -9.34375 C 8.28125 -9.695312 8.316406 -10.082031 8.359375 -10.5 C 8.398438 -10.914062 8.4375 -11.320312 8.46875 -11.71875 C 8.550781 -12.6875 8.648438 -13.726562 8.765625 -14.84375 L 8.921875 -17.3125 L 8.5 -17.296875 L 7.84375 -14.84375 Z M 6.078125 -7.703125 "/></g></g><g style="fill:#ff0095;fill-opacity:1;"><g transform="translate(104.614739, 26.050088)"><path style="stroke:none" d="M 2.5625 0.03125 C 3 -2.050781 3.414062 -4.109375 3.8125 -6.140625 C 3.976562 -6.992188 4.144531 -7.882812 4.3125 -8.8125 C 4.488281 -9.738281 4.65625 -10.648438 4.8125 -11.546875 C 4.976562 -12.453125 5.125 -13.328125 5.25 -14.171875 C 5.375 -15.015625 5.484375 -15.789062 5.578125 -16.5 C 5.140625 -16.550781 4.695312 -16.566406 4.25 -16.546875 C 3.800781 -16.523438 3.359375 -16.582031 2.921875 -16.71875 C 2.941406 -17.019531 2.953125 -17.367188 2.953125 -17.765625 C 2.953125 -18.171875 2.960938 -18.570312 2.984375 -18.96875 C 3.003906 -19.40625 3.023438 -19.867188 3.046875 -20.359375 C 3.535156 -20.316406 4.023438 -20.285156 4.515625 -20.265625 C 5.015625 -20.253906 5.507812 -20.25 6 -20.25 C 6.96875 -20.25 7.898438 -20.269531 8.796875 -20.3125 C 9.703125 -20.363281 10.535156 -20.421875 11.296875 -20.484375 C 12.066406 -20.554688 12.820312 -20.640625 13.5625 -20.734375 L 13.25 -19.203125 C 13.15625 -18.765625 13.066406 -18.316406 12.984375 -17.859375 C 12.898438 -17.398438 12.816406 -17.007812 12.734375 -16.6875 C 12.316406 -16.570312 11.894531 -16.488281 11.46875 -16.4375 C 11.039062 -16.394531 10.617188 -16.335938 10.203125 -16.265625 C 10.078125 -15.617188 9.9375 -14.898438 9.78125 -14.109375 C 9.632812 -13.328125 9.488281 -12.515625 9.34375 -11.671875 C 9.195312 -10.828125 9.054688 -9.96875 8.921875 -9.09375 C 8.796875 -8.226562 8.664062 -7.394531 8.53125 -6.59375 C 8.226562 -4.71875 7.941406 -2.773438 7.671875 -0.765625 Z M 2.5625 0.03125 "/></g></g><g style="fill:#ff0095;fill-opacity:1;"><g transform="translate(116.128569, 26.050088)"><path style="stroke:none" d="M 15.921875 -15.390625 C 15.921875 -13.828125 15.753906 -12.359375 15.421875 -10.984375 C 15.097656 -9.609375 14.660156 -8.347656 14.109375 -7.203125 C 13.554688 -6.054688 12.914062 -5.03125 12.1875 -4.125 C 11.457031 -3.226562 10.691406 -2.460938 9.890625 -1.828125 C 9.097656 -1.191406 8.289062 -0.707031 7.46875 -0.375 C 6.65625 -0.0507812 5.878906 0.109375 5.140625 0.109375 C 4.515625 0.109375 3.945312 -0.00390625 3.4375 -0.234375 C 2.925781 -0.472656 2.476562 -0.820312 2.09375 -1.28125 C 1.71875 -1.75 1.421875 -2.347656 1.203125 -3.078125 C 0.984375 -3.816406 0.875 -4.695312 0.875 -5.71875 C 0.875 -6.78125 1.003906 -7.894531 1.265625 -9.0625 C 1.535156 -10.238281 1.898438 -11.40625 2.359375 -12.5625 C 2.816406 -13.71875 3.375 -14.816406 4.03125 -15.859375 C 4.695312 -16.910156 5.425781 -17.835938 6.21875 -18.640625 C 7.019531 -19.441406 7.875 -20.078125 8.78125 -20.546875 C 9.695312 -21.023438 10.644531 -21.265625 11.625 -21.265625 C 12.476562 -21.265625 13.1875 -21.085938 13.75 -20.734375 C 14.3125 -20.390625 14.75 -19.9375 15.0625 -19.375 C 15.375 -18.820312 15.59375 -18.191406 15.71875 -17.484375 C 15.851562 -16.785156 15.921875 -16.085938 15.921875 -15.390625 Z M 5.125 -6.453125 C 5.125 -6.242188 5.160156 -6.023438 5.234375 -5.796875 C 5.304688 -5.566406 5.410156 -5.367188 5.546875 -5.203125 C 5.679688 -5.035156 5.847656 -4.890625 6.046875 -4.765625 C 6.242188 -4.640625 6.457031 -4.578125 6.6875 -4.578125 C 7.539062 -4.578125 8.296875 -4.867188 8.953125 -5.453125 C 9.617188 -6.046875 10.171875 -6.769531 10.609375 -7.625 C 11.046875 -8.476562 11.378906 -9.382812 11.609375 -10.34375 C 11.847656 -11.3125 11.96875 -12.195312 11.96875 -13 C 11.96875 -13.226562 11.953125 -13.472656 11.921875 -13.734375 C 11.898438 -14.003906 11.84375 -14.25 11.75 -14.46875 C 11.664062 -14.695312 11.535156 -14.890625 11.359375 -15.046875 C 11.179688 -15.210938 10.941406 -15.296875 10.640625 -15.296875 C 10.023438 -15.296875 9.460938 -15.144531 8.953125 -14.84375 C 8.441406 -14.539062 7.984375 -14.132812 7.578125 -13.625 C 7.171875 -13.125 6.816406 -12.554688 6.515625 -11.921875 C 6.210938 -11.296875 5.953125 -10.65625 5.734375 -10 C 5.515625 -9.34375 5.359375 -8.703125 5.265625 -8.078125 C 5.171875 -7.453125 5.125 -6.910156 5.125 -6.453125 Z M 5.125 -6.453125 "/></g></g><g style="fill:#ff0095;fill-opacity:1;"><g transform="translate(131.366559, 26.050088)"><path style="stroke:none" d="M 0.109375 0.03125 C 0.617188 -2.488281 1.113281 -4.953125 1.59375 -7.359375 C 1.757812 -8.390625 1.945312 -9.457031 2.15625 -10.5625 C 2.363281 -11.675781 2.554688 -12.773438 2.734375 -13.859375 C 2.921875 -14.953125 3.09375 -16.003906 3.25 -17.015625 C 3.414062 -18.035156 3.546875 -18.960938 3.640625 -19.796875 C 4.722656 -20.128906 5.890625 -20.375 7.140625 -20.53125 C 8.390625 -20.695312 9.628906 -20.78125 10.859375 -20.78125 C 11.597656 -20.78125 12.207031 -20.695312 12.6875 -20.53125 C 13.175781 -20.363281 13.554688 -20.125 13.828125 -19.8125 C 14.109375 -19.5 14.304688 -19.132812 14.421875 -18.71875 C 14.535156 -18.300781 14.59375 -17.832031 14.59375 -17.3125 C 14.59375 -16.5625 14.457031 -15.816406 14.1875 -15.078125 C 13.925781 -14.347656 13.570312 -13.65625 13.125 -13 C 12.675781 -12.351562 12.160156 -11.757812 11.578125 -11.21875 C 11.003906 -10.675781 10.382812 -10.234375 9.71875 -9.890625 C 10.0625 -9.140625 10.425781 -8.3125 10.8125 -7.40625 C 11.207031 -6.507812 11.578125 -5.648438 11.921875 -4.828125 C 12.296875 -3.878906 12.679688 -2.929688 13.078125 -1.984375 L 8.671875 -0.453125 C 8.296875 -1.671875 7.957031 -2.8125 7.65625 -3.875 C 7.519531 -4.300781 7.382812 -4.75 7.25 -5.21875 C 7.113281 -5.6875 6.988281 -6.128906 6.875 -6.546875 C 6.769531 -6.960938 6.675781 -7.332031 6.59375 -7.65625 C 6.519531 -7.988281 6.472656 -8.257812 6.453125 -8.46875 L 6.078125 -8.359375 C 5.972656 -7.753906 5.835938 -7.039062 5.671875 -6.21875 C 5.515625 -5.40625 5.367188 -4.625 5.234375 -3.875 C 5.066406 -2.976562 4.894531 -2.078125 4.71875 -1.171875 Z M 6.796875 -12.3125 C 7.160156 -12.351562 7.601562 -12.503906 8.125 -12.765625 C 8.644531 -13.035156 9.140625 -13.351562 9.609375 -13.71875 C 10.085938 -14.09375 10.492188 -14.476562 10.828125 -14.875 C 11.171875 -15.269531 11.34375 -15.617188 11.34375 -15.921875 C 11.34375 -16.128906 11.273438 -16.296875 11.140625 -16.421875 C 11.015625 -16.546875 10.832031 -16.640625 10.59375 -16.703125 C 10.351562 -16.773438 10.09375 -16.816406 9.8125 -16.828125 C 9.53125 -16.847656 9.234375 -16.859375 8.921875 -16.859375 C 8.710938 -16.859375 8.5 -16.851562 8.28125 -16.84375 C 8.070312 -16.832031 7.878906 -16.828125 7.703125 -16.828125 Z M 6.796875 -12.3125 "/></g></g></g></svg>